# xmcd
# 
# Track frame offsets:
#     150
#     17099
#     32496
#     49068
#     71790
#     85871
#     99738
#     113868
#     126448
#     141186
#     158996
#     179234
#     194103
# 
# Disc length: 2787
# 
# Revision: 8
# Processed by: cddbd v1.5.2PL0 Copyright (c) Steve Scherf et al.
# Submitted via: fre:ac v1.0.27
# 
DISCID=c40ae10d
DTITLE=Alison Krauss and Union Station - Live
DYEAR=2002
DGENRE=Country, Bluegrass
TTITLE0=Let Me Touch You For A While
TTITLE1=Choctaw Hayride
TTITLE2=The Lucky One
TTITLE3=Baby, Now That I've Found You
TTITLE4=Bright Sunny South
TTITLE5=Every Time You Say Goodbye
TTITLE6=Tiny Broken Heart
TTITLE7=Cluck Old Hen
TTITLE8=Stay
TTITLE9=Broadway
TTITLE10=Ghost In This House
TTITLE11=Forget About It
TTITLE12=Faraway Land
EXTD=CD 2002/2008 - CD 1/2\nRounder Records - DECCA 610 5152\nApril 29, 2002 - April 30, 2002\nThe Louisville Palace, Louisville, Kentucky
EXTT0=
EXTT1=
EXTT2=
EXTT3=
EXTT4=
EXTT5=
EXTT6=
EXTT7=
EXTT8=
EXTT9=
EXTT10=
EXTT11=
EXTT12=
PLAYORDER=
